<?xml version="1.0" standalone="no"?>
<!DOCTYPE svg PUBLIC "-//W3C//DTD SVG 20010904//EN"
 "http://www.w3.org/TR/2001/REC-SVG-20010904/DTD/svg10.dtd">
<svg version="1.0" xmlns="http://www.w3.org/2000/svg"
 width="16.000000pt" height="16.000000pt" viewBox="0 0 16.000000 16.000000"
 preserveAspectRatio="xMidYMid meet">
<metadata>
Created by potrace 1.11, written by Peter Selinger 2001-2013
</metadata>
<g transform="translate(0.000000,16.000000) scale(0.004923,-0.004923)"
fill="#000000" stroke="none">
<path d="M1325 3074 c-264 -35 -552 -126 -755 -236 -220 -120 -375 -305 -432
-516 -27 -100 -29 -299 -4 -417 91 -425 393 -902 885 -1396 298 -299 362 -337
581 -346 218 -9 315 32 517 219 73 68 141 135 152 149 l20 26 -115 107 -114
108 -130 -125 c-72 -69 -147 -133 -168 -143 -24 -12 -67 -20 -120 -22 -73 -4
-89 -1 -136 22 -67 33 -297 252 -456 435 -125 144 -270 330 -270 346 0 13
1973 544 1978 533 6 -12 -77 -198 -130 -293 -53 -93 -166 -267 -225 -344 -18
-25 -30 -48 -26 -52 5 -4 61 -48 127 -98 l118 -91 50 65 c216 287 387 629 444
895 23 105 23 306 1 390 -63 240 -223 405 -557 574 -222 113 -437 180 -673
211 -144 18 -423 18 -562 -1z m460 -309 c251 -20 575 -134 800 -282 130 -86
201 -175 220 -274 6 -34 5 -36 -32 -47 -123 -35 -2176 -583 -2178 -580 -16 18
-84 172 -110 252 -92 273 -63 462 93 615 167 164 576 301 967 324 53 4 125 1
240 -8z"/>
</g>
</svg>
