<?xml version="1.0" encoding="utf-8"?>
<!-- Generator: Adobe Illustrator 19.0.0, SVG Export Plug-In . SVG Version: 6.00 Build 0)  -->
<svg version="1.1" id="Layer_1" xmlns="http://www.w3.org/2000/svg" xmlns:xlink="http://www.w3.org/1999/xlink" x="0px" y="0px"
	 viewBox="-418.3 237.7 40 38" style="enable-background:new -418.3 237.7 40 38;" xml:space="preserve">
<style type="text/css">
	.st0{fill:#EB2D37;}
</style>
<g>
	<path class="st0" d="M-382,241.2h-32.6c-0.9,0-1.6,0.7-1.6,1.6v19.7c0,0.9,0.7,1.6,1.6,1.6h18.4v6.5c0,0.7,0.4,1.2,1,1.5
		c0.2,0.1,0.4,0.1,0.5,0.1c0.5,0,0.9-0.2,1.2-0.6l6.4-7.5h5c0.9,0,1.6-0.7,1.6-1.6v-19.7C-380.5,241.9-381.2,241.2-382,241.2z
		 M-383.6,260.9h-4.2c-0.5,0-0.9,0.2-1.2,0.6l-4.1,4.8v-3.8c0-0.9-0.7-1.6-1.6-1.6h-18.4v-16.6h29.5V260.9z"/>
	<path class="st0" d="M-407.4,251.4h11.2c0.9,0,1.6-0.7,1.6-1.6c0-0.9-0.7-1.6-1.6-1.6h-11.2c-0.9,0-1.6,0.7-1.6,1.6
		C-409,250.7-408.3,251.4-407.4,251.4z"/>
	<path class="st0" d="M-390.8,251.4c0.4,0,0.8-0.2,1.1-0.5c0.3-0.3,0.5-0.7,0.5-1.1c0-0.4-0.2-0.8-0.5-1.1c-0.3-0.3-0.7-0.5-1.1-0.5
		c-0.4,0-0.8,0.2-1.1,0.5c-0.3,0.3-0.5,0.7-0.5,1.1c0,0.4,0.2,0.8,0.5,1.1C-391.6,251.2-391.2,251.4-390.8,251.4z"/>
</g>
</svg>
