<?xml version="1.0" encoding="utf-8"?>
<!-- Generator: Adobe Illustrator 19.0.0, SVG Export Plug-In . SVG Version: 6.00 Build 0)  -->
<svg version="1.1" id="Layer_1" xmlns="http://www.w3.org/2000/svg" xmlns:xlink="http://www.w3.org/1999/xlink" x="0px" y="0px"
	 viewBox="-418.3 237.7 40 38" style="enable-background:new -418.3 237.7 40 38;" xml:space="preserve">
<style type="text/css">
	.st0{fill:#EB2D37;}
</style>
<path class="st0" d="M-392.7,262.3c-5.8,5.8-12.5,8.4-15.5,8.4c-0.4,0-0.7-0.1-0.7-0.1l-3.4-3.9l4.9-3.9l1.3,2c0,0,0.1,0.1,0.1,0.1
	c0.5,0.6,1.2,1,2.1,1l0,0c2,0,5-2,8.9-5.9c4-4,6-7.1,5.9-9.1c0-0.8-0.4-1.5-0.9-1.9c0,0-0.1-0.1-0.1-0.1l-2-1.3l3.9-4.9l3.9,3.4
	C-383.8,247.4-385.8,255.3-392.7,262.3z"/>
</svg>
