<?xml version="1.0" encoding="utf-8"?>
<!-- Generator: Adobe Illustrator 19.0.0, SVG Export Plug-In . SVG Version: 6.00 Build 0)  -->
<svg version="1.1" id="Layer_1" xmlns="http://www.w3.org/2000/svg" xmlns:xlink="http://www.w3.org/1999/xlink" x="0px" y="0px"
	 viewBox="0 0 63 64" style="enable-background:new 0 0 63 64;" xml:space="preserve">
<style type="text/css">
	.st0{fill:#EB2D37;}
</style>
<g id="XMLID_68_">
	<path id="XMLID_76_" class="st0" d="M13,5.1c-4.6,0-8.4,3.8-8.4,8.4v37c0,4.6,3.8,8.4,8.4,8.4h37c4.6,0,8.4-3.8,8.4-8.4v-37
		c0-4.6-3.8-8.4-8.4-8.4H13z M50,55.5H13c-2.8,0-5-2.3-5-5V25.3h10c-1,2-1.6,4.3-1.6,6.7c0,8.3,6.8,15.1,15.1,15.1
		c8.3,0,15.1-6.8,15.1-15.1c0-2.4-0.6-4.7-1.6-6.7h10v25.2C55,53.3,52.8,55.5,50,55.5L50,55.5z M43.3,32c0,6.5-5.3,11.8-11.8,11.8
		c-6.5,0-11.8-5.3-11.8-11.8c0-6.5,5.3-11.8,11.8-11.8C38,20.2,43.3,25.5,43.3,32L43.3,32z M55,13.5v8.4H42.8c-2.8-3.1-6.8-5-11.3-5
		c-4.5,0-8.5,1.9-11.3,5H8v-8.4c0-2.2,1.4-4.1,3.4-4.8v9.8c0,0.9,0.8,1.7,1.7,1.7c0.9,0,1.7-0.8,1.7-1.7V8.5h1.7v10.1
		c0,0.9,0.8,1.7,1.7,1.7c0.9,0,1.7-0.8,1.7-1.7V8.5H50C52.8,8.5,55,10.7,55,13.5L55,13.5z M55,13.5"/>
	<path id="XMLID_73_" class="st0" d="M31.5,23.6c-0.9,0-1.7,0.8-1.7,1.7c0,0.9,0.8,1.7,1.7,1.7c2.8,0,5,2.3,5,5
		c0,0.9,0.8,1.7,1.7,1.7c0.9,0,1.7-0.8,1.7-1.7C39.9,27.4,36.1,23.6,31.5,23.6L31.5,23.6z M31.5,23.6"/>
	<path id="XMLID_69_" class="st0" d="M43.3,11.8v6.7c0,0.9,0.8,1.7,1.7,1.7h6.7c0.9,0,1.7-0.8,1.7-1.7v-6.7c0-0.9-0.8-1.7-1.7-1.7
		h-6.7C44,10.2,43.3,10.9,43.3,11.8L43.3,11.8z M46.6,13.5H50v3.4h-3.4V13.5z M46.6,13.5"/>
</g>
</svg>
