<?xml version="1.0" encoding="utf-8"?>
<!-- Generator: Adobe Illustrator 19.0.0, SVG Export Plug-In . SVG Version: 6.00 Build 0)  -->
<svg version="1.1" id="Layer_1" xmlns="http://www.w3.org/2000/svg" xmlns:xlink="http://www.w3.org/1999/xlink" x="0px" y="0px"
	 viewBox="-430 224 63 64" style="enable-background:new -430 224 63 64;" xml:space="preserve">
<style type="text/css">
	.st0{fill:#EB2D37;}
</style>
<path class="st0" d="M-371.1,240.8c0.4-0.6,0.4-1.4-0.1-2c-0.5-0.6-1.3-0.8-2-0.5c0,0-0.1,0-0.1,0.1c0.4-0.7,0.7-1.5,1-2.2
	c0.2-0.7,0-1.4-0.6-1.8c-0.5-0.4-1.3-0.5-1.9-0.1c-1.7,1-3.5,1.7-5.4,2.2c-2.3-2.1-5.3-3.2-8.3-3.2c-6.8,0-12.4,5.5-12.4,12.4
	c0,0.2,0,0.4,0,0.6c-7.3-0.9-14.1-4.6-18.8-10.4c-0.3-0.4-0.9-0.7-1.4-0.6c-0.5,0-1,0.4-1.3,0.8c-1.1,1.9-1.7,4-1.7,6.2
	c0,2.1,0.5,4.1,1.5,5.9c-0.3,0-0.5,0.1-0.7,0.2c-0.5,0.3-0.8,0.9-0.8,1.4v0.1c0,3.7,1.7,7.1,4.3,9.4c-0.1,0.1-0.1,0.1-0.2,0.2
	c-0.4,0.4-0.5,1.1-0.3,1.6c1.1,3.6,3.8,6.4,7.2,7.7c-2.7,1.4-5.7,2.1-8.9,2.1c-0.8,0-1.6,0-2.4-0.1c-0.8-0.1-1.5,0.4-1.8,1.1
	c-0.3,0.7,0,1.6,0.7,2c5.2,3.3,11.1,5.1,17.3,5.1c12.1,0,19.6-5.7,23.8-10.5c5.2-5.9,8.2-13.8,8.2-21.6c0-0.2,0-0.4,0-0.6
	C-374.1,244.7-372.4,242.9-371.1,240.8L-371.1,240.8z M-378.8,244c-0.5,0.3-0.7,0.9-0.7,1.4c0,0.4,0,0.8,0,1.3c0,7-2.7,14-7.4,19.4
	c-3.8,4.3-10.5,9.3-21.3,9.3c-3.3,0-6.6-0.6-9.6-1.7c3.7-0.7,7.1-2.2,10.1-4.6c0.6-0.4,0.8-1.2,0.6-1.9c-0.2-0.7-0.9-1.1-1.6-1.1
	c-3-0.1-5.6-1.5-7.3-3.9c0.8-0.1,1.7-0.2,2.5-0.4c0.8-0.2,1.3-0.9,1.2-1.7c0-0.8-0.6-1.4-1.3-1.6c-3.3-0.7-6-3.2-6.9-6.4
	c0.9,0.2,1.8,0.4,2.8,0.4c0.8,0,1.4-0.5,1.7-1.2c0.2-0.7,0-1.5-0.7-1.9c-2.5-1.7-4-4.5-4-7.5c0-0.8,0.1-1.5,0.3-2.3
	c5.6,5.8,13.3,9.3,21.4,9.7c0.5,0,1-0.2,1.4-0.6c0.3-0.4,0.5-0.9,0.3-1.5c-0.2-0.7-0.2-1.4-0.2-2.1c0-5,4-9,9-9c2.5,0,4.9,1,6.6,2.8
	c0.4,0.4,1,0.6,1.5,0.5c0.6-0.1,1.3-0.3,1.9-0.5c-0.3,0.2-0.6,0.5-1,0.7c-0.7,0.4-1,1.2-0.7,2c0.3,0.8,1,1.2,1.8,1.1
	c0.3,0,0.5-0.1,0.8-0.1C-378,243.4-378.4,243.7-378.8,244L-378.8,244z M-378.8,244"/>
</svg>
