<?xml version="1.0" encoding="utf-8"?>
<!-- Generator: Adobe Illustrator 19.0.0, SVG Export Plug-In . SVG Version: 6.00 Build 0)  -->
<svg version="1.1" id="Layer_1" xmlns="http://www.w3.org/2000/svg" xmlns:xlink="http://www.w3.org/1999/xlink" x="0px" y="0px"
	 viewBox="-430 224 63 64" style="enable-background:new -430 224 63 64;" xml:space="preserve">
<style type="text/css">
	.st0{fill:#EB2D37;}
</style>
<g>
	<path class="st0" d="M-369.7,244c-0.1-0.5-0.7-4.6-2.6-6.8c-2.3-2.6-5-2.9-6.3-3c-0.1,0-0.2,0-0.3,0c0,0-0.1,0-0.1,0
		c-7.7-0.6-19.4-0.6-19.5-0.6h0c-0.1,0-11.8,0-19.5,0.6c0,0-0.1,0-0.1,0c-0.1,0-0.2,0-0.3,0c-1.3,0.1-3.9,0.4-6.3,3
		c-2,2.1-2.6,6.3-2.6,6.8c0,0,0,0,0,0c0,0.2-0.6,4.9-0.6,9.7v4.5c0,4.8,0.5,9.5,0.6,9.7c0,0,0,0,0,0c0.1,0.5,0.7,4.6,2.6,6.8
		c2.2,2.4,4.9,2.8,6.4,2.9c0.3,0,0.5,0.1,0.6,0.1c0.1,0,0.1,0,0.2,0c4.5,0.5,18.4,0.6,19,0.6c0.1,0,11.8,0,19.5-0.6c0,0,0.1,0,0.1,0
		c0.1,0,0.2,0,0.3,0c1.3-0.1,3.9-0.4,6.3-3c2-2.1,2.6-6.3,2.6-6.8c0,0,0,0,0,0c0-0.2,0.6-4.9,0.6-9.7v-4.5
		C-369.2,248.9-369.7,244.2-369.7,244C-369.7,244-369.7,244-369.7,244L-369.7,244z M-372.5,258.2c0,4.5-0.5,9.1-0.5,9.3
		c-0.1,0.9-0.7,3.8-1.8,4.9c0,0,0,0,0,0c-1.5,1.6-3.1,1.8-4.1,1.9c-0.1,0-0.2,0-0.3,0c-7.6,0.6-19.1,0.6-19.2,0.6
		c-0.1,0-14.2-0.1-18.6-0.6c-0.2,0-0.5-0.1-0.8-0.1c-1.3-0.2-3-0.4-4.3-1.9l0,0c-0.9-1-1.6-3.5-1.8-4.9c0-0.3-0.5-4.9-0.5-9.3v-4.5
		c0-4.5,0.5-9.1,0.5-9.3c0.1-0.9,0.7-3.8,1.8-4.9c0,0,0,0,0,0c1.5-1.6,3.1-1.8,4.1-1.9c0.1,0,0.2,0,0.3,0c7.6-0.6,19.1-0.6,19.2-0.6
		h0c0.1,0,11.6,0,19.2,0.6c0.1,0,0.2,0,0.3,0c1.1,0.1,2.6,0.3,4.1,1.9c0,0,0,0,0,0c0.9,1,1.6,3.6,1.8,4.9c0,0.3,0.5,4.9,0.5,9.3
		V258.2z M-372.5,258.2"/>
	<path class="st0" d="M-387.2,254.6l-17.3-10.4c-0.5-0.3-1.2-0.3-1.7,0c-0.5,0.3-0.9,0.9-0.9,1.5v20.8c0,0.6,0.3,1.2,0.9,1.5
		c0.3,0.1,0.5,0.2,0.8,0.2c0.3,0,0.6-0.1,0.9-0.2l17.3-10.4c0.5-0.3,0.8-0.9,0.8-1.4C-386.4,255.4-386.7,254.9-387.2,254.6
		L-387.2,254.6z M-403.7,263.4v-14.8l12.4,7.4L-403.7,263.4z M-403.7,263.4"/>
</g>
</svg>
