<?xml version="1.0" encoding="utf-8"?>
<!-- Generator: Adobe Illustrator 19.0.0, SVG Export Plug-In . SVG Version: 6.00 Build 0)  -->
<svg version="1.1" id="Layer_1" xmlns="http://www.w3.org/2000/svg" xmlns:xlink="http://www.w3.org/1999/xlink" x="0px" y="0px"
	 viewBox="-430 224 63 64" style="enable-background:new -430 224 63 64;" xml:space="preserve">
<style type="text/css">
	.st0{fill:#EB2D37;}
</style>
<path class="st0" d="M-405.5,283.7h10.8c0.9,0,1.7-0.8,1.7-1.7v-24.3h5.6c0.9,0,1.6-0.7,1.7-1.5l0.9-9.2c0-0.5-0.1-0.9-0.4-1.3
	c-0.3-0.4-0.8-0.6-1.2-0.6h-6.6v-3.7c0-0.8,0.2-0.8,0.6-0.8h5.8c0.9,0,1.7-0.8,1.7-1.7V230c0-0.9-0.7-1.7-1.7-1.7l-8,0
	c-5.6,0-8.6,2.5-10.1,4.5c-2.1,2.9-2.4,6.3-2.4,8.1v4.3h-3.5c-0.9,0-1.7,0.8-1.7,1.7v9.2c0,0.9,0.8,1.7,1.7,1.7h3.5V282
	C-407.1,283-406.4,283.7-405.5,283.7L-405.5,283.7z M-408.9,254.3v-5.8h3.5c0.9,0,1.7-0.8,1.7-1.7v-5.9c0-1.1,0.2-3.9,1.8-6.1
	c1.6-2.1,4.1-3.2,7.4-3.2l6.3,0v5.6h-4.1c-2,0-4,1.3-4,4.2v5.4c0,0.9,0.8,1.7,1.7,1.7h6.4l-0.6,5.8h-5.8c-0.9,0-1.7,0.8-1.7,1.7
	v24.3h-7.5V256c0-0.9-0.8-1.7-1.7-1.7H-408.9z M-408.9,254.3"/>
</svg>
